{"title":"Get.a.Job.2016.1080p.WEB-DL.DD5.1.H264-FGT","uid":14022648,"size":3412065012,"categoryP":"video","categoryS":"hd___movies","magnet":"?xt=urn:btih:27bb17437cdcd57ab8ea0fee1a3de29d8c0a421d&amp;dn=Get.a.Job.2016.1080p.WEB-DL.DD5.1.H264-FGT&amp;tr=udp%3A%2F%2Ftracker.leechers-paradise.org%3A6969&amp;tr=udp%3A%2F%2Fzer0day.ch%3A1337&amp;tr=udp%3A%2F%2Fopen.demonii.com%3A1337&amp;tr=udp%3A%2F%2Ftracker.coppersurfer.tk%3A6969&amp;tr=udp%3A%2F%2Fexodus.desync.com%3A6969","seeders":2,"leechers":3,"uploader":"makintos13","files":3,"time":1458878148,"description":"Get.a.Job.2016.1080p.WEB-DL.DD5.1.H264-FGT\r\n\r\nScreens:\r\n  \nhttp://imgmak.com/KiO\r\n  \nhttp://imgmak.com/KiP\r\n  \nhttp://imgmak.com/KiY\r\n  \nhttp://imgmak.com/Ki0\r\n\r\nVideo\r\nID                                       : 1\r\nFormat                                   : AVC\r\nFormat/Info                              : Advanced Video Codec\r\nFormat profile                           :   \r\nFormat settings, CABAC                   : Yes\r\nFormat settings, ReFrames                : 4 frames\r\nCodec ID                                 : V_MPEG4/ISO/AVC\r\nDuration                                 : 1h 22mn\r\nBit rate                                 : 5 003 Kbps\r\nWidth                                    : 1 912 pixels\r\nHeight                                   : 1 072 pixels\r\nDisplay aspect ratio                     : 16:9\r\nFrame rate mode                          : Constant\r\nFrame rate                               : 23.976 (24000/1001) fps\r\nColor space                              : YUV\r\nChroma subsampling                       : 4:2:0\r\nBit depth                                : 8 bits\r\nScan type                                : Progressive\r\nBits/(Pixel*Frame)                       : 0.102\r\nStream size                              : 2.89 GiB (91%)\r\nTitle                                    : Get.a.Job.2016.1080p.WEB-DL.DD5.1.H264-FGT\r\nLanguage                                 : English\r\nDefault                                  : Yes\r\nForced                                   : No\r\nColor range                              : Limited\r\nColor primaries                          : BT.709\r\nTransfer characteristics                 : BT.709\r\nMatrix coefficients                      : BT.709\r\n\r\nAudio\r\nID                                       : 2\r\nFormat                                   : AC-3\r\nFormat/Info                              : Audio Coding 3\r\nMode extension                           : CM (complete main)\r\nFormat settings, Endianness              : Big\r\nCodec ID                                 : A_AC3\r\nDuration                                 : 1h 22mn\r\nBit rate mode                            : Constant\r\nBit rate                                 : 384 Kbps\r\nChannel(s)                               : 6 channels\r\nChannel positions                        : Front: L C R, Side: L R, LFE\r\nSampling rate                            : 48.0 KHz\r\nFrame rate                               : 31.250 fps (1536 spf)\r\nCompression mode                         : Lossy\r\nStream size                              : 227 MiB (7%)\r\nTitle                                    : Get.a.Job.2016.1080p.WEB-DL.DD5.1.H264-FGT\r\nLanguage                                 : English\r\nDefault                                  : Yes\r\nForced                                   : No\r\n\r\nMenu\r\n00:00:00.000                             : en:1\r\n00:09:59.000                             : en:2\r\n00:19:42.000                             : en:3\r\n00:31:46.000                             : en:4\r\n00:40:56.000                             : en:5\r\n00:51:16.000                             : en:6\r\n01:00:25.000                             : en:7\r\n01:09:51.000                             : en:8\r\n01:16:34.000                             : en:9","torrent":{"xt":"urn:btih:27bb17437cdcd57ab8ea0fee1a3de29d8c0a421d","amp;dn":"Get.a.Job.2016.1080p.WEB-DL.DD5.1.H264-FGT","amp;tr":["udp%3A%2F%2Ftracker.leechers-paradise.org%3A6969","udp%3A%2F%2Fzer0day.ch%3A1337","udp%3A%2F%2Fopen.demonii.com%3A1337","udp%3A%2F%2Ftracker.coppersurfer.tk%3A6969","udp%3A%2F%2Fexodus.desync.com%3A6969"],"infoHash":"27bb17437cdcd57ab8ea0fee1a3de29d8c0a421d","infoHashBuffer":{"type":"Buffer","data":[39,187,23,67,124,220,213,122,184,234,15,238,26,61,226,157,140,10,66,29]},"announce":[],"urlList":[]}}